<?xml version="1.0" encoding="UTF-8" standalone="no"?>
<!-- Created with Inkscape (http://www.inkscape.org/) -->

<svg
   id="svg2"
   sodipodi:docname="rock-scissors-paper1.svg"
   viewBox="0 0 691.81 476.62"
   version="1.1"
   inkscape:version="1.2.2 (b0a8486541, 2022-12-01)"
   xmlns:inkscape="http://www.inkscape.org/namespaces/inkscape"
   xmlns:sodipodi="http://sodipodi.sourceforge.net/DTD/sodipodi-0.dtd"
   xmlns="http://www.w3.org/2000/svg"
   xmlns:svg="http://www.w3.org/2000/svg"
   xmlns:rdf="http://www.w3.org/1999/02/22-rdf-syntax-ns#"
   xmlns:cc="http://creativecommons.org/ns#"
   xmlns:dc="http://purl.org/dc/elements/1.1/">
  <title
     id="title4919">Rock Scissors Paper</title>
  <sodipodi:namedview
     id="base"
     bordercolor="#666666"
     inkscape:pageshadow="2"
     inkscape:window-y="0"
     pagecolor="#ffffff"
     inkscape:window-height="1011"
     inkscape:window-maximized="1"
     inkscape:zoom="1.4"
     inkscape:window-x="0"
     showgrid="false"
     borderopacity="1.0"
     inkscape:current-layer="layer1"
     inkscape:cx="274.64286"
     inkscape:cy="248.57143"
     inkscape:window-width="1920"
     inkscape:pageopacity="0.0"
     inkscape:document-units="px"
     inkscape:showpageshadow="0"
     inkscape:pagecheckerboard="0"
     inkscape:deskcolor="#d1d1d1"
     showguides="true">
    <sodipodi:guide
       position="100,461.62"
       orientation="1,0"
       id="guide1067"
       inkscape:locked="false" />
    <sodipodi:guide
       position="310,264.47714"
       orientation="1,0"
       id="guide1069"
       inkscape:locked="false" />
  </sodipodi:namedview>
  <defs
     id="defs4">
    <marker
       id="Arrow2Mend"
       refY="0"
       refX="0"
       style="overflow:visible"
       orient="auto"
       inkscape:stockid="Arrow2Mend">
      <path
         id="path4038"
         style="fill-rule:evenodd;stroke-width:0.625;stroke-linejoin:round"
         transform="scale(-0.6)"
         d="M 8.7186,4.0337 -2.2074,0.016 8.7186,-4.0017 c -1.7455,2.3721 -1.7354,5.6175 0,8.0354 z" />
    </marker>
  </defs>
  <g
     id="layer1"
     inkscape:label="Layer 1"
     inkscape:groupmode="layer"
     transform="translate(-42.612 -137.16)">
    <g
       id="g2906"
       transform="matrix(-0.60506873,0.12701758,0.12701758,0.60506873,630.05845,267.07336)"
       inkscape:export-filename="../Documents/GitHub/studies/OdinProject/Rock Paper Scissors/images/paper.svg"
       inkscape:export-xdpi="96"
       inkscape:export-ydpi="96">
      <path
         id="path3"
         d="m 259.08,17.719 c -4.01,-0.256 -2.042,5.467 -6.258,5.006 -2.182,-2.162 -1.385,-7.737 1.251,-8.761 0.281,0.971 0.035,2.469 1.252,2.503 0.28,-0.97 0.034,-2.468 1.251,-2.503 0.299,1.786 2.062,2.111 2.504,3.755 z" />
      <path
         id="path5"
         d="m 173.97,17.719 c -1.584,1.436 -9.868,2.515 -11.265,0 4.306,0.479 7.803,-6.286 11.265,-2.503 -1.511,0.264 -0.771,1.389 0,2.503 z" />
      <path
         id="path7"
         d="m 240.3,20.221 c -1.901,1.276 -8.113,-1.155 -10.014,-3.754 5.03,-0.44 9.158,0.02 10.014,3.754 z" />
      <path
         id="path9"
         d="m 290.36,57.769 c 1.164,-2.922 4.529,-10.066 0,-5.006 -1.437,-2.351 -0.207,-10.399 5.006,-10.013 0.505,7.179 0.247,13.597 -5.006,15.019 z" />
      <path
         id="path11"
         d="M 112.88,15.406 H 94.107 c -0.743,-0.873 29.706,-4.351 18.773,0 z" />
      <path
         id="path13"
         d="m 369.21,86.556 c -0.326,-1.948 -2.745,-0.868 -3.754,0 3.313,-2.11 1.396,-9.449 3.754,-12.516 1.525,1.894 2.458,10.78 0,12.516 z" />
      <path
         id="path15"
         d="m 295.37,89.058 c 1.109,-4.731 0.937,-10.745 3.756,-13.767 -0.142,5.699 -0.024,11.657 -3.756,13.767 z" />
      <path
         id="path17"
         d="m 191.49,85.303 c -7.078,-0.848 -17.994,2.142 -21.276,-2.503 9.66,0.83 16.427,-3.137 21.276,2.503 z" />
      <path
         id="path19"
         d="m 334.17,125.35 c -1.795,-1.543 -2.371,-4.304 -2.503,-7.51 2.142,-1.195 2.521,-4.152 5.006,-5.005 -1.2,3.807 2.68,12.692 -2.503,12.515 z" />
      <path
         id="path21"
         d="m 289.11,124.1 c 0.39,-3.784 -1.39,-9.734 2.503,-10.013 -1.03,3.141 2.434,10.775 -2.503,10.013 z" />
      <path
         id="path23"
         d="m 188.99,126.61 c -4.574,0.851 -9.1,1.746 -15.019,1.251 1.243,-3.813 9.789,-6.836 13.769,-3.754 -7.763,0.486 0.084,0.641 1.25,2.503 z" />
      <path
         id="path25"
         d="m 200.25,169.16 c -0.073,-5.496 0.504,-10.345 2.503,-13.768 -1.261,4.163 2.766,13.615 -2.503,13.768 z" />
      <path
         id="path27"
         d="m 158.95,46.505 c 5.797,0.809 10.295,-4.935 15.019,0 -5.767,-1.534 -11.103,3.833 -15.019,0 z" />
      <path
         id="path29"
         d="m 46.229,20.57 c 8.204,0.277 14.635,-1.219 21.277,-2.503 -2.471,4.077 -20.887,4.58 -21.277,2.503 z" />
      <path
         id="path31"
         d="m 281.6,126.61 c 1.312,-2.515 0.599,-13.491 2.503,-11.265 0.411,4.236 -0.976,13.112 -2.503,11.265 z" />
      <path
         id="path33"
         d="m 285.36,129.11 c 0.745,-6.283 0.367,-10.093 1.252,-13.768 2.044,2.957 2.173,12.365 -1.252,13.768 z" />
      <path
         id="path35"
         d="m 367.96,126.6 c -5.002,1.868 -15.024,1.868 -20.025,0 -1.197,-7.076 1.841,-16.464 0,-20.024 -46.83,1.298 -86.581,1.938 -135.17,1.251 20.958,-7.99 48.129,-3.82 75.094,-5.007 43.017,-1.89 87.378,1.49 122.65,-7.509 4.33,-5.413 3.127,-19.587 -2.503,-22.527 2.882,6.014 0.101,13.255 -2.503,17.521 -8.105,0.18 -16.143,0.289 -21.276,-2.502 0.216,-7.711 -1.787,-17.64 5.006,-18.773 -31.898,1.353 -56.328,-3.795 -86.357,-1.252 0.331,5.869 3.998,16.742 -2.503,18.773 1.253,-5.3 2.223,-13.686 0,-18.773 -29.323,-3.635 -65.038,-0.877 -91.364,-7.51 62.248,-1.654 128.88,7.685 183.98,1.252 -0.668,-4.338 1.859,-11.87 -2.503,-12.516 0.728,4.898 -1.077,7.267 -2.503,10.013 -8.161,-0.962 -16.246,1.611 -21.275,0 0.783,-3.804 -1.603,-10.78 1.252,-12.516 -5.466,15.413 17.483,12.443 20.023,5.006 -6.653,-8.223 -20.667,-9.609 -32.541,-11.264 -47.229,-6.583 -111.25,0.445 -155.19,-10.013 36.4,2.273 86.049,1.268 121.4,2.503 7.167,0.251 22.518,6.253 21.276,-7.509 -3.388,4.539 -11.951,3.901 -20.025,3.754 -2.494,-1.276 2.634,-8.914 -1.251,-11.264 C 270.562,12.4 207.742,3.398 153.952,6.458 112.452,8.817 71.454,6.336 36.312,11.464 23.843,13.281 11.686,18.925 0.014,16.47 22.259,8.675 47.527,6.475 75.107,5.207 107.902,3.7 144.382,-1.011 176.487,0.2 c 6.743,0.256 13.555,3.074 20.025,3.756 52.454,5.521 106.54,1.751 148.94,17.521 3.519,3.539 1.673,11.946 2.503,15.02 22.246,3.101 56.888,-0.582 48.811,28.785 5.949,-0.524 9.027,1.819 13.769,2.503 4.653,6.229 8.617,18.292 5.005,28.787 -7.016,9.671 -28.406,4.97 -41.302,8.762 7.52,10.533 1.729,26.649 -6.257,32.54 -31.736,6.23 -69.292,6.638 -106.38,7.51 5.988,5.631 10.071,17.214 6.259,28.786 -27.447,16.401 -68.675,7.55 -100.12,12.516 -15.694,2.479 -21.298,6.535 -33.792,7.51 -54.56,4.252 -64.943,-32.562 -103.88,-47.561 -5.108,-1.966 -11.236,-2.437 -16.271,-3.754 -3.554,-0.933 -13.292,0.196 -13.767,-7.51 0.09,-5.264 13.964,2.216 15.02,0 -1.541,-2.722 -13.286,-6.875 -7.511,-8.762 35.521,12.869 61.882,56.016 106.38,61.327 22.711,2.71 44.086,-4.475 67.584,-6.259 25.915,-1.966 51.778,2.017 75.094,-6.258 -5.259,-2.249 -14.193,-0.824 -20.024,-2.503 -0.108,-7.2 -0.271,-14.455 1.252,-20.025 6.923,-2.259 13.888,0.48 21.276,1.252 3.234,5.568 2.444,14.378 3.754,18.773 17.154,-49.229 -104.77,-10.208 -123.9,-36.295 32.543,9.766 100.99,5.861 148.94,3.754 34.288,-1.507 102.81,3.411 81.353,-31.289 2.749,4.647 1.047,13.937 -1.256,17.522 z M 326.66,17.72 c -1.144,2.194 -0.43,6.245 -2.503,7.51 4.209,1.758 10.931,2.934 15.021,1.251 1.364,-8.457 -6.901,-7.285 -12.518,-8.761 z m 60.076,55.068 v 13.768 c 4.332,1.925 11.41,1.106 17.522,1.252 8.308,-11.294 -5.278,-20.534 -17.522,-15.02 z m -35.044,37.548 c -2.397,3.025 -0.789,10.057 -1.251,15.019 h 13.768 c 9.719,-7.536 -0.683,-22.006 -12.517,-15.019 z m -111.39,45.057 c -1.666,3.758 -1.273,9.576 -1.252,15.021 7.063,-0.39 11.13,2.219 18.773,1.251 2.625,-3.851 1.255,-12.357 -1.252,-15.021 -6.133,0.292 -9.475,-2.205 -16.269,-1.251 z" />
    </g>
    <path
       id="path5-0"
       style="fill-rule:evenodd;stroke-width:0.455353"
       d="m 317.55429,512.31294 c 5.23098,-5.65618 -0.45251,-13.28901 0.73422,-19.67806 2.56387,4.74349 1.96483,10.20039 4.39274,13.24847 -3.25755,1.8628 -1.86941,4.56678 -5.12696,6.42959 z"
       inkscape:export-filename="../Documents/GitHub/studies/OdinProject/Rock Paper Scissors/images/rock.svg"
       inkscape:export-xdpi="96"
       inkscape:export-ydpi="96" />
    <path
       id="path13-8"
       style="fill-rule:evenodd;stroke-width:0.455353"
       d="m 165.85015,505.57264 c 5.02452,-0.0211 18.49732,-2.57533 25.11147,-2.31328 19.76759,0.78253 35.16561,19.69014 61.36219,3.09352 -3.82253,-1.47095 -8.05145,-2.08016 -12.032,-3.21481 5.83332,-1.56948 10.81337,1.93216 17.48763,2.09476 3.70122,0.0903 8.23937,-1.94491 12.92663,-1.28919 5.88987,0.8242 12.06255,5.03972 18.342,6.80974 13.02217,3.67041 21.96213,7.24982 28.49585,-6.87441 -0.55998,3.63654 -2.0433,6.83656 -6.0277,8.85645 8.36765,-1.54683 13.58122,-10.65403 11.5803,-16.70558 -2.42603,-7.33921 -16.96819,-13.05687 -24.34574,-18.88216 -13.26121,-10.46908 -18.34341,-19.87661 -27.80328,-28.5198 2.09884,-2.22447 5.03117,4.96313 8.32465,4.54513 2.47931,-3.34589 -0.71765,-9.37235 3.21538,-12.03173 0.65564,4.00451 0.36817,7.56459 0.7581,11.44333 2.91926,0.55362 4.76201,-0.0503 6.19712,-1.38602 -1.23276,-11.63782 -3.88394,-23.74502 5.57597,-28.77827 -4.03261,7.17618 -8.71371,25.39029 3.43332,30.56709 4.38978,-6.96132 3.13768,-16.58556 8.446,-23.11298 2.22919,2.10392 0.44696,3.63043 4.50443,0.89448 -1.68986,3.30797 -5.9095,5.42192 -6.76919,9.12243 1.48323,0.85781 3.52026,-3.23019 7.14773,-3.40082 -5.9944,4.56079 -9.85982,10.12752 -8.55771,18.13257 2.68673,4.96815 11.32501,2.60731 16.17363,10.0973 1.42242,2.19739 0.88611,5.51825 1.91856,7.6804 3.93255,8.23898 18.50508,11.93475 19.44587,0.55591 1.97377,1.98123 0.95795,2.98079 3.28783,2.16779 3.4815,-1.40702 5.43217,-6.3885 4.22271,-11.55663 -4.55811,-19.49087 -22.13517,-54.54756 -32.30259,-62.05602 -3.69337,-2.73055 -9.63367,-3.9435 -15.25994,-2.8919 -26.40884,4.93525 -47.25914,26.9446 -70.9502,35.49152 -29.31934,10.57741 -60.32079,3.08693 -86.77862,7.69678 l -0.79779,-2.22408 c 13.73348,-0.7567 26.27724,-1.69183 39.31099,-2.38572 12.05205,-0.64168 25.61212,0.32457 39.04515,-3.12679 15.34057,-3.9421 26.57512,-11.65049 38.4406,-18.80974 17.50929,-10.56386 45.99904,-28.79868 60.69749,-15.07809 7.38043,6.88659 12.69997,20.65379 17.36728,29.75299 5.84673,11.39729 13.93029,24.54359 14.98952,34.78995 0.35535,3.4398 -2.54429,7.70563 -3.42509,13.78028 -0.83115,5.73562 -0.46693,10.42469 -2.68342,13.51472 -1.45902,2.03511 -5.27123,2.23428 -8.09894,5.41536 -2.7749,3.12198 -2.17622,8.08977 -6.71319,11.61306 -3.17945,2.46889 -8.72266,3.67115 -12.81349,6.26958 -4.82817,3.06754 -6.80823,6.79647 -10.53299,7.96227 -5.73529,1.79556 -18.55057,0.97575 -26.44136,-1.39423 -3.86128,-1.15953 -6.53623,-4.92154 -10.60543,-6.23724 -14.96384,-4.84464 -38.19265,5.16627 -52.97229,3.937 -11.04053,-0.91605 -19.52465,-10.20386 -28.15017,-10.82031 -6.75186,-0.4855 -15.93824,3.26443 -21.34741,3.47284 l -2.3938,-6.6735 z m 172.13068,-12.37113 c 0.62851,-3.51696 3.07434,-2.34652 3.86033,-5.56877 1.62444,1.49555 -1.07147,3.85727 1.32974,3.70708 0.7892,-3.32256 2.93338,-6.00593 2.26419,-10.01719 -4.96716,1.3894 -9.89653,2.69801 -14.61918,3.57013 -0.01,3.90364 2.2088,10.94811 7.16492,8.30875 z" />
    <path
       id="path17-4"
       style="fill-rule:evenodd;stroke-width:0.455353"
       d="m 291.91175,445.26228 c -1.29861,0.0913 -1.61769,0.4915 -0.77316,-0.90296 -0.94878,-0.76511 -0.47168,-1.6701 -1.76254,-1.1536 0.36516,-4.46197 1.07824,-6.32861 1.10693,-10.85153 2.24172,3.99831 2.74749,7.67088 1.42877,12.90809 z"
       sodipodi:nodetypes="ccccc" />
    <g
       id="g1065"
       transform="matrix(0.86514683,-0.23181539,0.23181539,0.86514683,-127.11959,180.41597)"
       inkscape:export-filename="../Documents/GitHub/studies/OdinProject/Rock Paper Scissors/images/scissors.svg"
       inkscape:export-xdpi="96"
       inkscape:export-ydpi="96">
      <g
         id="g3028"
         transform="matrix(0.72791656,0.25846615,-0.25846615,0.72791656,225.50139,127.25472)">
        <path
           id="path3-1"
           style="fill-rule:evenodd"
           d="m 361.4,18.798 c 0.183,3.935 -2.72,8.736 0.351,11.859 0.581,-1.918 2.404,-2.862 1.882,-1.278 3.681,-0.369 -0.205,-4.866 1.708,-7.206 -2.92,-0.673 -1.599,-2.539 -3.941,-3.375 z" />
        <path
           id="path5-7"
           style="fill-rule:evenodd"
           d="m 323.56,19.741 c -1.958,1.333 -1.575,8.389 0.848,10.972 2.115,-4.334 -1.078,-7.171 -0.848,-10.972 z" />
        <path
           id="path7-1"
           style="fill-rule:evenodd"
           d="m 373.98,89.99 c -3.714,1.095 -4.415,7.683 -4.585,10.26 3.952,-1.163 2.957,-7.273 4.585,-10.26 z" />
        <path
           id="path9-1"
           style="fill-rule:evenodd"
           d="m 321.97,72.5 c -2.411,1.459 -2.76,8.722 -4.691,12.531 4.131,-1.946 5.219,-9.416 4.691,-12.531 z" />
        <path
           id="path11-5"
           style="fill-rule:evenodd"
           d="m 270.18,127.44 c -4.752,9.811 -19.64,1.719 -24.672,-8 5.153,-4.7 10.842,-7.498 16.442,-10.608 2.885,6.549 11.457,11.943 8.23,18.608 z m -21.122,-6.01 c 4.796,2.948 9.505,7.987 15.086,8.457 11.746,-11.772 -8.793,-23.322 -15.086,-8.457 z" />
        <path
           id="path13-2"
           style="fill-rule:evenodd"
           d="m 253.65,111.17 c -2.67,-1.188 -6.125,1.818 -5.647,3.832 2.115,-0.45 3.98,-1.786 5.647,-3.832 z" />
        <path
           id="path15-7"
           style="fill-rule:evenodd"
           d="m 60.617865,23.218761 c 19.307,-0.023 10.581067,-0.05938 31.472067,-1.231381 19.920998,-1.12 11.432068,2.19762 31.362068,1.03962 17.961,-1.042 38.129,-5.02 57.842,-9.561 20.324,-4.681 39.488,-12.878 57.559,-13.218 13.051,-0.246 29.157,4.603 43.064,4.315 9.181,-0.19 19.653,-2.939 30.252,-4.035 21.304,-2.203 44.943,3.055 65.787,5.389 12.365,1.385 29.646,4.323 29.889,13.256 0.524,19.289 -27.008,14.056 -36.328,16.955 -13.509,1.351 -27.446,-2.572 -41.397,-1.047 -7.37,0.806 -14.535,4.626 -21.66,5.351 -9.644,0.983 -20.19,-3.831 -27.589,5.527 42.685,20.521 87.223,26.455 127.48,49.3 5.767,34.513 -41.071,12.854 -62.277,7.074 -26.268,-7.161 -48.3,-16.484 -64.968,-13.095 -0.35,10.063 16.708,15.225 17.493,24.967 -10.56,23.538 -31.963,8.575 -42.513,32.15 -10.699,-0.138 -23.185,6.185 -32.632,6.199 -7.419,0.01 -15.125,-4.914 -25.168,-7.113 -23.599,-5.165 -59.929,-1.638 -81.196,-7.028 -22.981,-5.826 -35.052,-17.105 -52.047,-7.019 -1.775,-0.994 -3.549,-1.988 -5.325,-2.983 8.888,-5.595 19.42,-5.348 29.083,-8.189 0.795,-1.107 -2.106,-4.701 1.102,-4.046 -0.22,1.557 0.171,2.94 1.171,4.154 0.967,-2.802 -1.314,-8.549 1.813,-9.479 0.1,3.21 -0.55,6.631 1.843,9.196 21.318,-4.805 47.895,-5.07 65.761,-13.287 -18.073,0.189 -38.065,2.406 -58.541,-14.155 28.437,15.536 61.903,14.136 83.4,-1.064 -5.337,-3.071 -11.74,-3.682 -13.7,-8.847 1.478,0.828 2.957,1.657 4.436,2.487 -1.045,-6.191 -9.188,-14.342 -6.843,-18.997 -0.98,21.186 32.324,21.716 50.648,36.556 3.521,2.852 4.986,8.622 8.552,11.79 12.459,11.079 38.325,27.914 43.629,11.63 1.475,-4.527 -5.874,-17.871 -9.398,-22.763 -6.85,-9.518 -17.31,-22.53 -25.97,-28.56 -15.51,-10.8 -35.67,-11.84 -39.22,-27.814 5.059,3.557 6.6,8.104 13.593,11.116 3.937,-3.393 -0.896,-8.159 2.702,-8.98 0.786,2.865 0.175,8.934 4.612,8.417 3.356,-4.005 6.206,-9.805 10.124,-11.819 -2.581,5.461 -8.058,11.736 -6.682,16.081 14.856,5.141 28.032,15.589 34.783,25.328 31.917,-10.33 73.244,4.919 112.58,17.624 10.837,3.501 33.131,11.804 36.853,0.833 2.115,-6.233 -8.018,-11.988 -14.763,-15.274 -34.38,-16.744 -79.11,-26.327 -115.55,-41.446 -1.908,-0.621 -8.7,3.843 -6.816,-0.324 10.694,-11.2 25.805,-10.954 39.771,-12.692 5.622,-0.7 11.034,-2.603 17.008,-3.294 26.229,-3.041 50.338,4.846 68.879,-2.207 6.501,-2.474 12.802,-8.383 8.456,-15.085 -33.85,-7.884 -68.86,-11.57 -103.92,-8.105 -18.22,1.801 -33.92,0.942 -50.98,-0.589 -32.88,-2.953 -66.64,12.387 -96.51,18.207 -16.4,3.195 -32.97,1.52 -50.21,2.181 -33.113,1.266 -11.959135,-0.812239 -43.766135,1.544761 0.995,-1.775 1.99,-3.55 2.984,-5.324 z M 264.584,91.646 c 0.395,11.847 9.998,21.099 12.129,32.457 6.438,0.748 12.617,0.576 16.336,-8.335 -5.655,-8.494 -16.405,-22.274 -28.465,-24.122 z m -43.467,23.451 c -2.333,-0.235 0.908,10.869 4.329,4.76 -2.22,-1.369 -3.948,-2.875 -4.329,-4.76 z m 34.5,21.673 c -11.813,-7.808 -30.909,-17.961 -31.703,-3.777 -8.923,-9.287 -27.699,-17.935 -34.863,-4.381 7.407,-3.651 15.946,-0.771 21.513,7.394 -0.996,1.774 -1.99,3.55 -2.985,5.324 4.788,2.848 9.016,3.707 13.418,5.189 8.938,-5.838 28.133,3.156 34.62,-9.749 z m -64.013,-4.395 c 4.305,3.021 6.208,6.721 12.316,9.237 0.995,-1.775 1.99,-3.551 2.984,-5.325 -2.4,-4.755 -11.471,-9.038 -15.3,-3.912 z"
           sodipodi:nodetypes="ccccccsccccccccccccccccccccccccccccccccccccccccccccccccccccccccccccccccccccccccc" />
        <path
           id="path17-6"
           style="fill-rule:evenodd"
           d="m 320.29,21.408 c -1.362,-2.508 -1.234,5.898 -0.82,7.705 3.498,-0.554 0.371,-5.536 0.82,-7.705 z" />
        <path
           id="path19-1"
           style="fill-rule:evenodd"
           d="m 239.77,96.394 c -2.115,0.449 -3.981,1.787 -5.646,3.832 -0.551,-3.857 6.066,-4.896 7.354,-11.038 -5.153,2.885 -9.686,10.019 -12.503,13.983 3.877,-1.264 7.735,-2.605 10.795,-6.777 z" />
      </g>
    </g>
  </g>
  <metadata
     id="metadata51">
    <rdf:RDF>
      <cc:Work>
        <dc:format>image/svg+xml</dc:format>
        <dc:type
           rdf:resource="http://purl.org/dc/dcmitype/StillImage" />
        <cc:license
           rdf:resource="http://creativecommons.org/publicdomain/zero/1.0/" />
        <dc:publisher>
          <cc:Agent
             rdf:about="http://openclipart.org/">
            <dc:title>Openclipart</dc:title>
          </cc:Agent>
        </dc:publisher>
        <dc:title>Rock Scissors Paper</dc:title>
        <dc:date>2010-05-31T17:54:35</dc:date>
        <dc:description>Rock Scissors Paper hand game depiction. Rock, scissors, and paper by Francesco 'Architetto' Rollandin from openclipart.org</dc:description>
        <dc:source>https://openclipart.org/detail/63805/rock-scissors-paper-by-mazeo</dc:source>
        <dc:creator>
          <cc:Agent>
            <dc:title>mazeo</dc:title>
          </cc:Agent>
        </dc:creator>
        <dc:subject>
          <rdf:Bag>
            <rdf:li>fingers</rdf:li>
            <rdf:li>fist</rdf:li>
            <rdf:li>hand</rdf:li>
            <rdf:li>hands</rdf:li>
            <rdf:li>paper</rdf:li>
            <rdf:li>paper rock scissors</rdf:li>
            <rdf:li>paper scissors rock</rdf:li>
            <rdf:li>remix</rdf:li>
            <rdf:li>rock</rdf:li>
            <rdf:li>rock paper scissors</rdf:li>
            <rdf:li>rock scissors paper</rdf:li>
            <rdf:li>scissor</rdf:li>
            <rdf:li>scissors</rdf:li>
            <rdf:li>scissors paper rock</rdf:li>
            <rdf:li>scissors rock paper</rdf:li>
          </rdf:Bag>
        </dc:subject>
      </cc:Work>
      <cc:License
         rdf:about="http://creativecommons.org/publicdomain/zero/1.0/">
        <cc:permits
           rdf:resource="http://creativecommons.org/ns#Reproduction" />
        <cc:permits
           rdf:resource="http://creativecommons.org/ns#Distribution" />
        <cc:permits
           rdf:resource="http://creativecommons.org/ns#DerivativeWorks" />
      </cc:License>
    </rdf:RDF>
  </metadata>
</svg>
